<?xml version="1.0" encoding="utf-8"?>
<!-- Generator: Adobe Illustrator 26.5.0, SVG Export Plug-In . SVG Version: 6.00 Build 0)  -->
<svg version="1.1" id="_x30_" xmlns="http://www.w3.org/2000/svg" xmlns:xlink="http://www.w3.org/1999/xlink" x="0px" y="0px"
	 viewBox="0 0 14020.1 10523.2" style="enable-background:new 0 0 14020.1 10523.2;" xml:space="preserve">
<style type="text/css">
	.st0{fill:none;stroke:#000000;stroke-width:40;stroke-linecap:round;stroke-linejoin:round;stroke-miterlimit:10;}
</style>
<g id="LWPOLYLINE">
	<path class="st0" d="M11654.5,6233c0,39.1,31.7,70.9,70.9,70.9h1729.1c39.1,0,70.9-31.7,70.9-70.9V4396.2
		c0-39.1-31.7-70.9-70.9-70.9h-1729.1c-39.1,0-70.9,31.7-70.9,70.9V6233z"/>
</g>
<g id="LWPOLYLINE_00000014607367544586335660000015710715031578550407_">
	<path class="st0" d="M9783.7,6233c0,39.1,31.7,70.9,70.9,70.9h1729.1c39.1,0,70.9-31.7,70.9-70.9V4396.2
		c0-39.1-31.7-70.9-70.9-70.9H9854.5c-39.1,0-70.9,31.7-70.9,70.9V6233z"/>
</g>
<g id="LWPOLYLINE_00000039092492361483122910000005759751282550587319_">
	<path class="st0" d="M7912.8,6233c0,39.1,31.7,70.9,70.9,70.9h1729.1c39.1,0,70.9-31.7,70.9-70.9V4396.2
		c0-39.1-31.7-70.9-70.9-70.9H7983.7c-39.1,0-70.9,31.7-70.9,70.9V6233z"/>
</g>
<g id="LWPOLYLINE_00000176008630551248736480000003214199174026081157_">
	<path class="st0" d="M9783.7,2417.6c0-39.1-31.7-70.9-70.9-70.9H7983.7c-39.1,0-70.9,31.7-70.9,70.9v1836.9
		c0,39.1,31.7,70.9,70.9,70.9h1729.1c39.1,0,70.9-31.7,70.9-70.9V2417.6z"/>
</g>
<g id="LWPOLYLINE_00000143618024718252350330000014939341582857199266_">
	<path class="st0" d="M7913.6,2275.8c0,39.1,31.7,70.9,70.9,70.9h1729.1c39.1,0,70.9-31.7,70.9-70.9V439c0-39.1-31.7-70.9-70.9-70.9
		H7984.5c-39.1,0-70.9,31.7-70.9,70.9V2275.8z"/>
</g>
<g id="LWPOLYLINE_00000078745826030651248200000016135094183294496652_">
	<path class="st0" d="M7912.8,2417.6c0-39.1-31.7-70.9-70.9-70.9H6112.8c-39.1,0-70.9,31.7-70.9,70.9v1836.9
		c0,39.1,31.7,70.9,70.9,70.9h1729.1c39.1,0,70.9-31.7,70.9-70.9V2417.6z"/>
</g>
<g id="LWPOLYLINE_00000158000454016744522020000009382199673251621767_">
	<path class="st0" d="M6041.9,2417.6c0-39.1-31.7-70.9-70.9-70.9H4241.9c-39.1,0-70.9,31.7-70.9,70.9v1836.9
		c0,39.1,31.7,70.9,70.9,70.9h1729.1c39.1,0,70.9-31.7,70.9-70.9V2417.6z"/>
</g>
<g id="LWPOLYLINE_00000142865726344318850020000009680648181723368853_">
	<path class="st0" d="M4171.1,2417.6c0-39.1-31.7-70.9-70.9-70.9H2371.1c-39.1,0-70.9,31.7-70.9,70.9v1836.9
		c0,39.1,31.7,70.9,70.9,70.9h1729.1c39.1,0,70.9-31.7,70.9-70.9C4171.1,4254.4,4171.1,2417.6,4171.1,2417.6z"/>
</g>
<g id="LWPOLYLINE_00000072981357049688890170000016373141647864928674_">
	<path class="st0" d="M2300.2,2417.6c0-39.1-31.7-70.9-70.9-70.9H500.2c-39.1,0-70.9,31.7-70.9,70.9v1836.9
		c0,39.1,31.7,70.9,70.9,70.9h1729.1c39.1,0,70.9-31.7,70.9-70.9C2300.2,4254.4,2300.2,2417.6,2300.2,2417.6z"/>
</g>
<g id="LWPOLYLINE_00000093880982801016895180000014694758646325927583_">
	<path class="st0" d="M429.3,6233c0,39.1,31.7,70.9,70.9,70.9h1729.1c39.1,0,70.9-31.7,70.9-70.9V4396.2c0-39.1-31.7-70.9-70.9-70.9
		H500.2c-39.1,0-70.9,31.7-70.9,70.9V6233z"/>
</g>
<g id="LWPOLYLINE_00000053523837182541530870000001702674927953833614_">
	<path class="st0" d="M2300.2,6233c0,39.1,31.7,70.9,70.9,70.9h1729.1c39.1,0,70.9-31.7,70.9-70.9V4396.2
		c0-39.1-31.7-70.9-70.9-70.9H2371.1c-39.1,0-70.9,31.7-70.9,70.9V6233z"/>
</g>
<g id="LWPOLYLINE_00000142870060051206638070000015976013591580877186_">
	<path class="st0" d="M4171.1,6233c0,39.1,31.7,70.9,70.9,70.9h1729.1c39.1,0,70.9-31.7,70.9-70.9V4396.2
		c0-39.1-31.7-70.9-70.9-70.9H4241.9c-39.1,0-70.9,31.7-70.9,70.9V6233z"/>
</g>
<g id="LWPOLYLINE_00000052785116722665469800000000797456437955983232_">
	<path class="st0" d="M6041.9,6233c0,39.1,31.7,70.9,70.9,70.9h1729.1c39.1,0,70.9-31.7,70.9-70.9V4396.2
		c0-39.1-31.7-70.9-70.9-70.9H6112.8c-39.1,0-70.9,31.7-70.9,70.9V6233z"/>
</g>
<g id="LWPOLYLINE_00000158717755540214114500000007186401984082142911_">
	<path class="st0" d="M7912.8,6374.7c0-39.1-31.7-70.9-70.9-70.9H6112.8c-39.1,0-70.9,31.7-70.9,70.9v1836.9
		c0,39.1,31.7,70.9,70.9,70.9h1729.1c39.1,0,70.9-31.7,70.9-70.9V6374.7z"/>
</g>
<g id="LWPOLYLINE_00000155135277108177785820000017274274171439257017_">
	<path class="st0" d="M6041.9,6374.7c0-39.1-31.7-70.9-70.9-70.9H4241.9c-39.1,0-70.9,31.7-70.9,70.9v1836.9
		c0,39.1,31.7,70.9,70.9,70.9h1729.1c39.1,0,70.9-31.7,70.9-70.9V6374.7z"/>
</g>
<g id="LWPOLYLINE_00000080200521745694394390000011882791229065513913_">
	<path class="st0" d="M4171.1,6374.7c0-39.1-31.7-70.9-70.9-70.9H2371.1c-39.1,0-70.9,31.7-70.9,70.9v1836.9
		c0,39.1,31.7,70.9,70.9,70.9h1729.1c39.1,0,70.9-31.7,70.9-70.9C4171.1,8211.6,4171.1,6374.7,4171.1,6374.7z"/>
</g>
<g id="LWPOLYLINE_00000025420354354764702680000006504948754071712149_">
	<path class="st0" d="M2300.2,6374.7c0-39.1-31.7-70.9-70.9-70.9H500.2c-39.1,0-70.9,31.7-70.9,70.9v1836.9
		c0,39.1,31.7,70.9,70.9,70.9h1729.1c39.1,0,70.9-31.7,70.9-70.9C2300.2,8211.6,2300.2,6374.7,2300.2,6374.7z"/>
</g>
<g id="LWPOLYLINE_00000162339376952717791940000001777762248379798432_">
	<path class="st0" d="M3235.6,8353.3c0-39.1-31.7-70.9-70.9-70.9H1435.6c-39.1,0-70.9,31.7-70.9,70.9v1836.9
		c0,39.1,31.7,70.9,70.9,70.9h1729.1c39.1,0,70.9-31.7,70.9-70.9C3235.6,10190.2,3235.6,8353.3,3235.6,8353.3z"/>
</g>
<g id="LWPOLYLINE_00000145048824380718608940000018033300876379529916_">
	<path class="st0" d="M5106.5,8353.3c0-39.1-31.7-70.9-70.9-70.9H3306.5c-39.1,0-70.9,31.7-70.9,70.9v1836.9
		c0,39.1,31.7,70.9,70.9,70.9h1729.1c39.1,0,70.9-31.7,70.9-70.9V8353.3z"/>
</g>
<g id="LWPOLYLINE_00000023271578238354287010000000230398854563217281_">
	<path class="st0" d="M6977.4,8353.3c0-39.1-31.7-70.9-70.9-70.9H5177.4c-39.1,0-70.9,31.7-70.9,70.9v1836.9
		c0,39.1,31.7,70.9,70.9,70.9h1729.1c39.1,0,70.9-31.7,70.9-70.9V8353.3z"/>
</g>
<g id="LWPOLYLINE_00000145032685605981184160000016468413808588412299_">
	<path class="st0" d="M9783.7,6374.7c0-39.1-31.7-70.9-70.9-70.9H7983.7c-39.1,0-70.9,31.7-70.9,70.9v1836.9
		c0,39.1,31.7,70.9,70.9,70.9h1729.1c39.1,0,70.9-31.7,70.9-70.9V6374.7z"/>
</g>
<g id="LWPOLYLINE_00000157991536690584382970000013157657316691042714_">
	<path class="st0" d="M11654.5,6374.7c0-39.1-31.7-70.9-70.9-70.9H9854.5c-39.1,0-70.9,31.7-70.9,70.9v1836.9
		c0,39.1,31.7,70.9,70.9,70.9h1729.1c39.1,0,70.9-31.7,70.9-70.9V6374.7z"/>
</g>
<g id="LWPOLYLINE_00000040558344516757969970000014546293019927869603_">
	<path class="st0" d="M13525.4,6374.7c0-39.1-31.7-70.9-70.9-70.9h-1729.1c-39.1,0-70.9,31.7-70.9,70.9v1836.9
		c0,39.1,31.7,70.9,70.9,70.9h1729.1c39.1,0,70.9-31.7,70.9-70.9V6374.7z"/>
</g>
</svg>
